<?xml version="1.0" encoding="UTF-8"?>
<svg id="Layer_1" data-name="Layer 1" xmlns="http://www.w3.org/2000/svg" viewBox="0 0 1010 883.76">
  <defs>
    <style>
      .cls-1 {
        fill: #fff;
      }
    </style>
  </defs>
  <path class="cls-1" d="M1003.5,407.5c-18.05-50.15-34.77-111.24-51.18-171.22-16.41-59.98-32.51-118.84-49.32-164.55-7.98-21.7-22.41-39.63-40.62-52.14-18.22-12.51-40.22-19.59-63.33-19.59h-294.04S210.96,0,210.96,0c-23.12,0-45.12,7.08-63.33,19.59-18.22,12.51-32.65,30.44-40.62,52.14-16.8,45.71-32.91,104.57-49.32,164.55-16.41,59.98-33.14,121.06-51.19,171.22C2.21,419.41.04,431.77,0,444.13c-.04,12.36,2.05,24.72,6.3,36.65,16.74,47.03,32.68,103.61,48.55,161.07s31.65,115.82,48.07,166.4c7.37,22.69,21.77,41.56,40.3,54.76,18.53,13.21,41.17,20.74,65.03,20.74h296.76s296.75,0,296.75,0c23.85,0,46.5-7.53,65.03-20.74,18.53-13.2,32.93-32.08,40.3-54.76,16.43-50.58,32.21-108.93,48.07-166.4s31.8-114.05,48.55-161.07c4.25-11.93,6.34-24.29,6.3-36.65-.04-12.36-2.21-24.72-6.5-36.63ZM726.01,654.73h-442.03v-78.29h442.03v78.29ZM726.01,481.02h-442.03v-78.29h442.03v78.29ZM726.01,307.32h-442.03v-78.29h442.03v78.29Z"/>
</svg>